<?xml version="1.0" encoding="UTF-8"?>
<svg width="126mm" height="20.7mm" version="1.1" viewBox="0 0 126 20.7" xmlns="http://www.w3.org/2000/svg" xmlns:cc="http://creativecommons.org/ns#" xmlns:dc="http://purl.org/dc/elements/1.1/" xmlns:rdf="http://www.w3.org/1999/02/22-rdf-syntax-ns#"><metadata><rdf:RDF><cc:Work rdf:about=""><dc:format>image/svg+xml</dc:format><dc:type rdf:resource="http://purl.org/dc/dcmitype/StillImage"/><dc:title/></cc:Work></rdf:RDF></metadata><g transform="translate(-38.2 -65.1)"><g fill="#996f4c" stroke-width=".65" aria-label="佛山市南海峻益内衣辅料厂"><path d="m40.6 65.3c-0.529 1.51-1.45 3.02-2.4 3.97 0.212 0.296 0.561 0.995 0.677 1.3 0.233-0.243 0.476-0.529 0.709-0.847v5.41h1.21v-7.28c0.381-0.698 0.73-1.45 1.01-2.17zm3.6 5.61c0.0106-0.138 0.0106-0.286 0.0106-0.423v-0.529h0.73v0.952zm-1.83 0c0.0529-0.307 0.0952-0.624 0.138-0.952h0.603v0.529c0 0.138 0 0.286-0.0106 0.423zm1.84-3.02h0.73v0.995h-0.73zm2.55 0v0.995h-0.73v-0.995zm-0.73 3.02v-0.952h1.83v-3.13h-1.83v-1.43h-1.09v1.43h-0.73v-1.44h-1.1v1.44h-1.68v1.07h1.68v0.995h-1.55c-0.116 1.01-0.307 2.28-0.487 3.09h1.9c-0.201 0.984-0.698 1.84-1.92 2.41 0.222 0.19 0.603 0.593 0.751 0.825 1.52-0.709 2.1-1.86 2.3-3.24h0.825v3.16h1.09v-3.16h1.02c-0.0212 0.783-0.0529 1.1-0.127 1.21-0.0635 0.0847-0.138 0.106-0.254 0.106s-0.307 0-0.561-0.0423c0.138 0.275 0.233 0.709 0.254 1.05 0.37 0 0.73-0.0106 0.931-0.0423 0.243-0.0529 0.413-0.127 0.582-0.339 0.201-0.254 0.254-0.995 0.275-2.6 0.0106-0.138 0.0106-0.402 0.0106-0.402z"/><path d="m57 67.5v5.59h-2.35v-7.75h-1.32v7.75h-2.32v-5.55h-1.29v6.84h7.28v0.751h1.32v-7.63z"/><path d="m69.4 67.9v-1.23h-3.91c-0.18-0.434-0.529-1.07-0.794-1.56l-1.25 0.392c0.18 0.349 0.381 0.783 0.54 1.16h-4.24v1.23h4.12v1.19h-3.23v4.94h1.27v-3.71h1.96v4.76h1.31v-4.76h2.1v2.32c0 0.138-0.0529 0.18-0.233 0.18-0.159 0.0106-0.783 0.0106-1.31-0.0212 0.18 0.339 0.37 0.868 0.423 1.24 0.815 0 1.43-0.0106 1.86-0.212 0.444-0.19 0.571-0.54 0.571-1.16v-3.57h-3.41v-1.19z"/><path d="m79.8 67.3v-1.17h-3.98v-0.804h-1.38v0.804h-4v1.17h4v0.794h-3.6v7.01h1.27v-5.85h2.01l-0.963 0.286c0.19 0.339 0.413 0.783 0.519 1.11h-0.921v0.984h1.74v0.688h-1.95v1.01h1.95v1.5h1.19v-1.5h2.02v-1.01h-2.02v-0.688h1.79v-0.984h-0.91c0.201-0.317 0.413-0.698 0.635-1.09l-1.06-0.296c-0.138 0.413-0.413 0.984-0.646 1.37l0.0741 0.0212h-1.6l0.804-0.265c-0.116-0.328-0.36-0.783-0.593-1.13h3.93v4.58c0 0.169-0.0529 0.222-0.243 0.222-0.169 0.0106-0.825 0.0106-1.34-0.0212 0.159 0.296 0.349 0.751 0.413 1.07 0.847 0 1.47-0.0106 1.89-0.18 0.434-0.18 0.582-0.466 0.582-1.08v-5.75h-3.59v-0.794z"/><path d="m84 66.5c-0.423-0.339-1.26-0.804-1.87-1.09l-0.698 0.847c0.614 0.328 1.44 0.836 1.82 1.2zm-0.73 2.97c-0.381-0.339-1.16-0.804-1.76-1.07l-0.677 0.857c0.593 0.317 1.35 0.804 1.71 1.16zm-1.06 5.48c0.466-1.04 0.942-2.26 1.33-3.39l-0.963-0.698c-0.455 1.24-1.04 2.58-1.47 3.4zm5.42-2.49 0.339-0.233c-0.212-0.265-0.593-0.603-0.942-0.889h1.7c-0.0318 0.444-0.0635 0.804-0.106 1.12zm-1.11-1.12-0.402 0.254c0.307 0.254 0.667 0.582 0.921 0.868h-1.6c0.0529-0.36 0.106-0.73 0.159-1.12zm0.243-2.15-0.36 0.233c0.265 0.233 0.561 0.519 0.773 0.773h-1.43c0.0423-0.339 0.0847-0.667 0.127-1.01zm2.07 0c-0.0106 0.36-0.0318 0.688-0.0423 1.01h-1.02l0.296-0.201c-0.18-0.233-0.508-0.54-0.804-0.804zm1.86 2.15v-1.14h-0.751c0.0212-0.476 0.0529-0.984 0.0741-1.55 0.0106-0.159 0.0106-0.529 0.0106-0.529h-5.01c0.138-0.222 0.254-0.455 0.381-0.698h5.02v-1.12h-4.5c0.106-0.254 0.201-0.519 0.286-0.762l-1.22-0.307c-0.36 1.16-0.984 2.38-1.69 3.13 0.296 0.159 0.836 0.508 1.08 0.688 0.127-0.159 0.265-0.339 0.392-0.54-0.0529 0.54-0.116 1.11-0.19 1.68h-1.09v1.14h0.942c-0.116 0.815-0.243 1.59-0.37 2.19h4.38c-0.0423 0.169-0.0952 0.265-0.148 0.328-0.106 0.138-0.201 0.169-0.381 0.169-0.212 0-0.624 0-1.09-0.0423 0.18 0.286 0.307 0.73 0.328 1.03 0.497 0.0318 1.01 0.0318 1.32-0.0212 0.349-0.0529 0.614-0.148 0.847-0.476 0.138-0.18 0.243-0.476 0.328-0.984h0.783v-1.07h-0.646c0.0318-0.328 0.0635-0.698 0.0952-1.12z"/><path d="m98.4 68.8c0.709 0.519 1.63 1.3 2.05 1.79l0.878-0.709c-0.476-0.497-1.42-1.22-2.12-1.71zm2.7-0.889c-0.381-0.614-1.21-1.6-1.83-2.31l-0.91 0.497c0.212 0.254 0.444 0.529 0.667 0.825l-1.9 0.18c0.466-0.487 0.942-1.05 1.33-1.61l-1.22-0.36c-0.444 0.804-1.14 1.59-1.37 1.8-0.212 0.212-0.402 0.37-0.603 0.413 0.138 0.296 0.307 0.847 0.37 1.08 0.328-0.148 0.804-0.222 4.07-0.571 0.159 0.222 0.307 0.444 0.413 0.635zm-4.21 0.423c-0.476 0.561-1.23 1.16-1.88 1.58 0.243 0.201 0.635 0.656 0.815 0.868 0.677-0.508 1.55-1.32 2.14-2.01zm0.423 3.33h1.67c-0.243 0.37-0.54 0.709-0.889 0.995-0.328-0.286-0.603-0.593-0.836-0.931zm2.5-1.01-0.212 0.0423h-1.58c0.127-0.201 0.243-0.413 0.339-0.614l-1.11-0.296c-0.434 0.974-1.29 1.8-2.28 2.31 0.243 0.19 0.646 0.614 0.825 0.836 0.243-0.148 0.487-0.328 0.72-0.519 0.201 0.317 0.423 0.603 0.677 0.878-0.667 0.37-1.43 0.646-2.24 0.825v-7.12h-0.847v5.6l-0.381 0.0318v-7.19h-0.931v7.26l-0.339 0.0318v-5.78h-0.836v6.96l2.49-0.233v0.455h0.773l-0.159 0.0318c0.222 0.254 0.497 0.698 0.624 0.995 1.01-0.254 1.94-0.603 2.74-1.11 0.688 0.497 1.51 0.857 2.46 1.09 0.159-0.317 0.476-0.783 0.741-1.04-0.847-0.159-1.6-0.423-2.24-0.783 0.667-0.614 1.21-1.38 1.56-2.32z"/><path d="m112 67.3h-2.54c0.328-0.434 0.72-1.03 1.08-1.61l-1.28-0.381c-0.222 0.55-0.646 1.3-0.974 1.79l0.582 0.201h-3.08l0.572-0.296c-0.201-0.466-0.656-1.17-1.1-1.69l-1.07 0.466c0.328 0.466 0.709 1.06 0.931 1.52h-2.5v1.11h9.38zm-3.85 2.07c1.05 0.402 2.52 1.04 3.25 1.45l0.698-0.995c-0.773-0.402-2.28-0.984-3.29-1.33zm-3.33 2.37h0.878v2.01h-0.878zm2.91 0v2.01h-0.878v-2.01zm2.05 0v2.01h-0.9v-2.01zm1.17 2.01v-3.07h-7.08c0.921-0.455 1.98-1.06 2.65-1.56l-0.878-0.624c-0.698 0.508-2.08 1.12-3.08 1.42 0.265 0.265 0.561 0.73 0.72 1.04 0.138-0.0635 0.275-0.127 0.423-0.19v2.98h-1.22v1.11h9.64v-1.11z"/><path d="m121 68.3v3.82c-0.582-0.73-1.71-1.81-2.61-2.62 0.0847-0.413 0.127-0.804 0.148-1.2zm-6.18 0h2.41c-0.0529 1.3-0.413 2.87-2.41 3.91zm7.43-1.23h-3.7v-1.76h-1.3v1.76h-3.68v8.15h1.26v-2.98c0.307 0.233 0.698 0.677 0.878 0.931 1.15-0.677 1.86-1.55 2.28-2.43 0.773 0.773 1.57 1.63 1.99 2.21l1.04-0.804v1.59c0 0.19-0.0635 0.243-0.265 0.254-0.201 0-0.91 0.0106-1.53-0.0212 0.18 0.328 0.37 0.889 0.413 1.25 0.942 0 1.62-0.0212 2.05-0.222 0.444-0.201 0.582-0.55 0.582-1.23z"/><path d="m132 68.7c-0.455 0.55-1.13 1.17-1.78 1.69-0.318-0.72-0.529-1.49-0.688-2.35h3.57v-1.21h-4.36l0.646-0.201c-0.0953-0.402-0.392-1.04-0.656-1.5l-1.28 0.37c0.18 0.413 0.392 0.921 0.508 1.33h-4.22v1.21h3.43c-0.91 1.09-2.3 2.12-3.75 2.72 0.222 0.275 0.561 0.794 0.709 1.1 0.54-0.243 1.06-0.54 1.57-0.878v1.99c0 0.582-0.455 0.995-0.72 1.19 0.201 0.212 0.54 0.688 0.656 0.942 0.328-0.233 0.836-0.402 4-1.39-0.0847-0.286-0.222-0.804-0.275-1.16l-2.37 0.688v-3.24c0.519-0.444 0.984-0.931 1.41-1.44 0.519 2.58 1.48 4.54 4.2 6.27 0.159-0.392 0.55-0.868 0.878-1.11-1.23-0.688-2.06-1.43-2.67-2.3 0.741-0.55 1.59-1.26 2.28-1.94z"/><path d="m138 71.7-0.847 0.127v-1.01h0.762v-1.09h-0.762v-1.55h-1.12v1.55h-0.709c0.254-0.635 0.519-1.37 0.751-2.13h1.8v-1.14h-1.48c0.0847-0.317 0.148-0.624 0.201-0.931l-1.21-0.222c-0.0529 0.381-0.116 0.773-0.201 1.15h-1.25v1.14h0.984c-0.19 0.698-0.37 1.26-0.466 1.48-0.18 0.466-0.328 0.762-0.55 0.825 0.138 0.296 0.318 0.847 0.381 1.07 0.0952-0.0952 0.476-0.159 0.826-0.159h0.921v1.17c-0.836 0.127-1.61 0.233-2.21 0.307l0.243 1.21c0.582-0.0952 1.27-0.222 1.97-0.349v1.98h1.12v-2.18c0.307-0.0635 0.603-0.116 0.91-0.18zm4.33-1.61h-0.878v-0.72h0.878zm-0.878 1.78v-0.762h0.878v0.762zm-1.95 0v-0.762h0.91v0.762zm0.91-2.5v0.72h-0.91v-0.72zm3.3-1.71v-1.06h-0.677l0.508-0.402c-0.265-0.254-0.751-0.667-1.11-0.942l-0.762 0.571c0.275 0.233 0.624 0.519 0.868 0.773h-1.02v-1.29h-1.19v1.29h-2.17v1.06h2.17v0.656h-1.92v6.85h1.08v-2.26h0.91v2.21h1.04v-2.21h0.878v1.07c0 0.0952-0.0317 0.127-0.116 0.127-0.0847 0-0.318 0-0.55-0.0106 0.138 0.296 0.275 0.762 0.307 1.07 0.487 0 0.847-0.0212 1.12-0.201 0.275-0.19 0.339-0.487 0.339-0.963v-5.67h-1.9v-0.656z"/><path d="m152 67.1c-0.339-0.392-1.09-0.931-1.68-1.28l-0.603 0.847c0.582 0.392 1.31 0.963 1.64 1.38zm-2.77 2.22c0.614 0.37 1.39 0.931 1.74 1.32l0.635-1.01c-0.381-0.381-1.16-0.889-1.78-1.22zm-0.952-3.49c-0.116 0.741-0.37 1.81-0.582 2.48l0.794 0.222c0.265-0.614 0.572-1.62 0.847-2.47zm-2.05 2.48c-0.0529-0.656-0.265-1.66-0.54-2.42l-0.878 0.233c0.243 0.762 0.455 1.79 0.476 2.44zm2.89 3.48c-0.222-0.296-1.23-1.48-1.53-1.79v-0.0741h1.57v-1.17h-1.57v-3.46h-1.16v3.46h-1.6v1.17h1.21c-0.328 0.963-0.868 2.1-1.4 2.74 0.19 0.349 0.466 0.921 0.571 1.3 0.455-0.635 0.878-1.62 1.22-2.6v3.74h1.16v-3.71c0.307 0.487 0.603 1.04 0.762 1.38zm5.6 0.243-0.19-1.17-1.08 0.201v-5.82h-1.19v6.03l-3.14 0.561 0.19 1.17 2.95-0.529v2.65h1.19v-2.86z"/><path d="m164 65.9h-8.5v3.24c0 1.61-0.0847 3.83-1.12 5.31 0.339 0.148 0.931 0.508 1.19 0.72 1.12-1.62 1.29-4.24 1.29-6.03v-1.9h7.14z"/></g><g stroke-width=".553" aria-label="Nanhai Tuda Hardware Factory"><path d="m39.1 84.2h0.402v-3.08c0-0.515-0.0353-0.995-0.0564-1.49h0.0353l0.579 1.03 2.1 3.54h0.437v-5.14h-0.402v3.05c0 0.501 0.0282 1.02 0.0564 1.52h-0.0353l-0.572-1.04-2.1-3.53h-0.437z"/><path d="m45.9 84.3c0.48 0 0.931-0.261 1.31-0.572h0.0141l0.0423 0.48h0.346v-2.38c0-0.833-0.318-1.47-1.21-1.47-0.614 0-1.14 0.296-1.43 0.494l0.183 0.296c0.261-0.198 0.691-0.43 1.19-0.43 0.713 0 0.875 0.579 0.861 1.14-1.66 0.19-2.4 0.586-2.4 1.42 0 0.698 0.487 1.04 1.09 1.04zm0.0847-0.346c-0.416 0-0.769-0.198-0.769-0.713 0-0.579 0.508-0.924 1.99-1.09v1.22c-0.444 0.388-0.804 0.586-1.22 0.586z"/><path d="m49.9 84.2h0.409v-2.82c0.437-0.452 0.748-0.677 1.19-0.677 0.579 0 0.826 0.36 0.826 1.14v2.35h0.409v-2.41c0-0.967-0.36-1.45-1.14-1.45-0.515 0-0.903 0.296-1.28 0.67h-0.0141l-0.0494-0.572h-0.339z"/><path d="m55.1 84.2h0.409v-2.82c0.437-0.452 0.748-0.677 1.19-0.677 0.579 0 0.826 0.36 0.826 1.14v2.35h0.409v-2.41c0-0.967-0.36-1.45-1.14-1.45-0.515 0-0.903 0.296-1.28 0.677l0.0071-0.818v-1.61h-0.409z"/><path d="m61.1 84.3c0.48 0 0.931-0.261 1.31-0.572h0.0141l0.0423 0.48h0.346v-2.38c0-0.833-0.318-1.47-1.21-1.47-0.614 0-1.14 0.296-1.43 0.494l0.183 0.296c0.261-0.198 0.691-0.43 1.19-0.43 0.713 0 0.875 0.579 0.861 1.14-1.66 0.19-2.4 0.586-2.4 1.42 0 0.698 0.487 1.04 1.09 1.04zm0.0847-0.346c-0.416 0-0.769-0.198-0.769-0.713 0-0.579 0.508-0.924 1.99-1.09v1.22c-0.444 0.388-0.804 0.586-1.22 0.586z"/><path d="m65.1 84.2h0.409v-3.76h-0.409zm0.212-4.64c0.183 0 0.325-0.134 0.325-0.346 0-0.198-0.141-0.325-0.325-0.325-0.19 0-0.332 0.127-0.332 0.325 0 0.212 0.141 0.346 0.332 0.346z"/><path d="m71.6 84.2h0.43v-4.78h1.62v-0.36h-3.67v0.36h1.62z"/><path d="m76.3 84.3c0.522 0 0.903-0.289 1.27-0.713h0.0212l0.0353 0.621h0.346v-3.76h-0.409v2.75c-0.423 0.508-0.734 0.734-1.17 0.734-0.579 0-0.818-0.36-0.818-1.13v-2.36h-0.409v2.41c0 0.967 0.353 1.45 1.14 1.45z"/><path d="m81.7 84.3c0.487 0 0.903-0.261 1.21-0.564h0.0212l0.0423 0.473h0.339v-5.61h-0.409v1.53l0.0282 0.677c-0.367-0.289-0.67-0.459-1.12-0.459-0.889 0-1.67 0.769-1.67 1.98 0 1.26 0.614 1.97 1.56 1.97zm0.0706-0.36c-0.762 0-1.19-0.635-1.19-1.61 0-0.924 0.55-1.62 1.27-1.62 0.353 0 0.677 0.127 1.05 0.466v2.17c-0.374 0.388-0.727 0.593-1.13 0.593z"/><path d="m86.5 84.3c0.48 0 0.931-0.261 1.31-0.572h0.0141l0.0423 0.48h0.346v-2.38c0-0.833-0.318-1.47-1.21-1.47-0.614 0-1.14 0.296-1.43 0.494l0.183 0.296c0.261-0.198 0.691-0.43 1.19-0.43 0.713 0 0.875 0.579 0.861 1.14-1.66 0.19-2.4 0.586-2.4 1.42 0 0.698 0.487 1.04 1.09 1.04zm0.0847-0.346c-0.416 0-0.769-0.198-0.769-0.713 0-0.579 0.508-0.924 1.99-1.09v1.22c-0.445 0.388-0.804 0.586-1.22 0.586z"/><path d="m93.2 84.2h0.423v-2.55h2.67v2.55h0.423v-5.14h-0.423v2.23h-2.67v-2.23h-0.423z"/><path d="m100 84.3c0.48 0 0.931-0.261 1.31-0.572h0.0141l0.0423 0.48h0.346v-2.38c0-0.833-0.318-1.47-1.21-1.47-0.614 0-1.14 0.296-1.43 0.494l0.183 0.296c0.261-0.198 0.691-0.43 1.19-0.43 0.713 0 0.875 0.579 0.861 1.14-1.66 0.19-2.4 0.586-2.4 1.42 0 0.698 0.487 1.04 1.09 1.04zm0.0847-0.346c-0.416 0-0.769-0.198-0.769-0.713 0-0.579 0.508-0.924 1.99-1.09v1.22c-0.444 0.388-0.804 0.586-1.22 0.586z"/><path d="m104 84.2h0.409v-2.53c0.275-0.698 0.677-0.945 1.01-0.945 0.148 0 0.219 0.0141 0.346 0.0635l0.0847-0.367c-0.12-0.0635-0.233-0.0847-0.381-0.0847-0.437 0-0.811 0.325-1.07 0.797h-0.0141l-0.0494-0.699h-0.339z"/><path d="m109 84.3c0.487 0 0.903-0.261 1.21-0.564h0.0212l0.0423 0.473h0.339v-5.61h-0.409v1.53l0.0282 0.677c-0.367-0.289-0.67-0.459-1.12-0.459-0.889 0-1.67 0.769-1.67 1.98 0 1.26 0.614 1.97 1.56 1.97zm0.0706-0.36c-0.762 0-1.19-0.635-1.19-1.61 0-0.924 0.55-1.62 1.27-1.62 0.353 0 0.677 0.127 1.05 0.466v2.17c-0.374 0.388-0.727 0.593-1.13 0.593z"/><path d="m113 84.2h0.494l0.614-2.25c0.12-0.367 0.205-0.72 0.289-1.09h0.0353c0.106 0.374 0.176 0.72 0.282 1.08l0.635 2.26h0.529l1.06-3.76h-0.402l-0.642 2.37c-0.0917 0.36-0.176 0.684-0.261 1.02h-0.0282c-0.0988-0.339-0.183-0.663-0.275-1.02l-0.67-2.37h-0.452l-0.67 2.37c-0.0917 0.353-0.176 0.684-0.268 1.02h-0.0353c-0.0706-0.339-0.155-0.663-0.24-1.02l-0.656-2.37h-0.437z"/><path d="m120 84.3c0.48 0 0.931-0.261 1.31-0.572h0.0141l0.0423 0.48h0.346v-2.38c0-0.833-0.318-1.47-1.21-1.47-0.614 0-1.14 0.296-1.43 0.494l0.183 0.296c0.261-0.198 0.691-0.43 1.19-0.43 0.713 0 0.875 0.579 0.861 1.14-1.66 0.19-2.4 0.586-2.4 1.42 0 0.698 0.487 1.04 1.09 1.04zm0.0847-0.346c-0.416 0-0.769-0.198-0.769-0.713 0-0.579 0.508-0.924 1.99-1.09v1.22c-0.444 0.388-0.804 0.586-1.22 0.586z"/><path d="m124 84.2h0.409v-2.53c0.275-0.698 0.677-0.945 1.01-0.945 0.148 0 0.219 0.0141 0.346 0.0635l0.0847-0.367c-0.12-0.0635-0.233-0.0847-0.381-0.0847-0.437 0-0.811 0.325-1.07 0.797h-0.0141l-0.0494-0.699h-0.339z"/><path d="m129 84.3c0.543 0 0.896-0.176 1.2-0.367l-0.155-0.303c-0.282 0.198-0.6 0.325-1 0.325-0.811 0-1.35-0.642-1.38-1.56h2.67c0.0141-0.0917 0.0212-0.19 0.0212-0.296 0-1.1-0.543-1.75-1.45-1.75-0.847 0-1.65 0.762-1.65 1.98 0 1.23 0.783 1.97 1.75 1.97zm-1.33-2.23c0.0776-0.861 0.628-1.37 1.24-1.37 0.656 0 1.07 0.459 1.07 1.37z"/><path d="m135 84.2h0.423v-2.44h2.04v-0.36h-2.04v-1.98h2.41v-0.36h-2.84z"/><path d="m140 84.3c0.48 0 0.931-0.261 1.31-0.572h0.0141l0.0423 0.48h0.346v-2.38c0-0.833-0.318-1.47-1.21-1.47-0.614 0-1.14 0.296-1.43 0.494l0.183 0.296c0.261-0.198 0.691-0.43 1.19-0.43 0.713 0 0.875 0.579 0.861 1.14-1.66 0.19-2.4 0.586-2.4 1.42 0 0.698 0.487 1.04 1.09 1.04zm0.0847-0.346c-0.416 0-0.769-0.198-0.769-0.713 0-0.579 0.508-0.924 1.99-1.09v1.22c-0.444 0.388-0.804 0.586-1.22 0.586z"/><path d="m146 84.3c0.473 0 0.875-0.205 1.21-0.487l-0.205-0.282c-0.254 0.226-0.593 0.416-0.981 0.416-0.79 0-1.31-0.656-1.31-1.62s0.572-1.62 1.32-1.62c0.353 0 0.628 0.162 0.861 0.381l0.233-0.282c-0.261-0.233-0.6-0.459-1.1-0.459-0.931 0-1.74 0.727-1.74 1.98 0 1.25 0.741 1.97 1.72 1.97z"/><path d="m150 84.3c0.169 0 0.409-0.0635 0.628-0.141l-0.0988-0.325c-0.134 0.0635-0.318 0.113-0.459 0.113-0.501 0-0.628-0.31-0.628-0.783v-2.37h1.08v-0.346h-1.08v-1.09h-0.346l-0.0494 1.09-0.6 0.0353v0.31h0.586v2.34c0 0.698 0.226 1.16 0.967 1.16z"/><path d="m153 84.3c0.91 0 1.7-0.72 1.7-1.97 0-1.26-0.79-1.98-1.7-1.98-0.91 0-1.7 0.727-1.7 1.98 0 1.25 0.79 1.97 1.7 1.97zm0-0.353c-0.734 0-1.27-0.656-1.27-1.62s0.536-1.62 1.27-1.62c0.734 0 1.28 0.663 1.28 1.62s-0.543 1.62-1.28 1.62z"/><path d="m157 84.2h0.409v-2.53c0.275-0.698 0.677-0.945 1.01-0.945 0.148 0 0.219 0.0141 0.346 0.0635l0.0847-0.367c-0.12-0.0635-0.233-0.0847-0.381-0.0847-0.437 0-0.811 0.325-1.07 0.797h-0.0141l-0.0494-0.699h-0.339z"/><path d="m161 85.9c0.691 0 1.08-0.607 1.3-1.26l1.47-4.2h-0.416l-0.769 2.3c-0.106 0.325-0.226 0.72-0.339 1.06h-0.0353c-0.134-0.339-0.275-0.734-0.395-1.06l-0.875-2.3h-0.444l1.54 3.82-0.0988 0.318c-0.183 0.543-0.487 0.953-0.938 0.953-0.106 0-0.226-0.0282-0.303-0.0564l-0.0917 0.346c0.106 0.0494 0.254 0.0776 0.402 0.0776z"/></g></g></svg>
