<svg xmlns="http://www.w3.org/2000/svg" xmlns:xlink="http://www.w3.org/1999/xlink" width="430" height="430" xmlns:v="https://vecta.io/nano"><defs><path id="A" d="M0 0h8v8H0z"/><linearGradient gradientUnits="userSpaceOnUse" id="B" y2="59" x2="583.25" y1="221.909" x1="583.25"><stop offset="0%" stop-color="#78d431"/><stop offset="100%" stop-color="#9eee69"/></linearGradient><linearGradient gradientUnits="userSpaceOnUse" id="C" y2="132.802" x2="675.363" y1="269.465" x1="675.363"><stop offset="0%" stop-color="#e4e6e6"/><stop offset="100%" stop-color="#f5f5ff"/></linearGradient></defs><path fill="#fff" d="M0 0h430v430H0z"/><g transform="matrix(1.278953 0 0 1.278953 -15.211483 -15.211483)" stroke="#000" paint-order="normal" stroke-width=".6"><use xlink:href="#A" x="32" y="32"/><use xlink:href="#A" x="32" y="40"/><use xlink:href="#A" x="32" y="48"/><use xlink:href="#A" x="32" y="56"/><use xlink:href="#A" x="32" y="64"/><use xlink:href="#A" x="32" y="72"/><use xlink:href="#A" x="32" y="80"/><use xlink:href="#A" x="32" y="104"/><use xlink:href="#A" x="32" y="112"/><use xlink:href="#A" x="32" y="128"/><use xlink:href="#A" x="32" y="176"/><use xlink:href="#A" x="32" y="184"/><use xlink:href="#A" x="32" y="192"/><use xlink:href="#A" x="32" y="224"/><use xlink:href="#A" x="32" y="240"/><use xlink:href="#A" x="32" y="248"/><use xlink:href="#A" x="32" y="272"/><use xlink:href="#A" x="32" y="280"/><use xlink:href="#A" x="32" y="288"/><use xlink:href="#A" x="32" y="296"/><use xlink:href="#A" x="32" y="304"/><use xlink:href="#A" x="32" y="312"/><use xlink:href="#A" x="32" y="320"/><use xlink:href="#A" x="40" y="32"/><use xlink:href="#A" x="40" y="80"/><use xlink:href="#A" x="40" y="104"/><use xlink:href="#A" x="40" y="120"/><use xlink:href="#A" x="40" y="136"/><use xlink:href="#A" x="40" y="152"/><use xlink:href="#A" x="40" y="160"/><use xlink:href="#A" x="40" y="184"/><use xlink:href="#A" x="40" y="208"/><use xlink:href="#A" x="40" y="224"/><use xlink:href="#A" x="40" y="240"/><use xlink:href="#A" x="40" y="248"/><use xlink:href="#A" x="40" y="272"/><use xlink:href="#A" x="40" y="320"/><use xlink:href="#A" x="48" y="32"/><use xlink:href="#A" x="48" y="48"/><use xlink:href="#A" x="48" y="56"/><use xlink:href="#A" x="48" y="64"/><use xlink:href="#A" x="48" y="80"/><use xlink:href="#A" x="48" y="104"/><use xlink:href="#A" x="48" y="112"/><use xlink:href="#A" x="48" y="120"/><use xlink:href="#A" x="48" y="136"/><use xlink:href="#A" x="48" y="144"/><use xlink:href="#A" x="48" y="176"/><use xlink:href="#A" x="48" y="192"/><use xlink:href="#A" x="48" y="216"/><use xlink:href="#A" x="48" y="224"/><use xlink:href="#A" x="48" y="232"/><use xlink:href="#A" x="48" y="240"/><use xlink:href="#A" x="48" y="272"/><use xlink:href="#A" x="48" y="288"/><use xlink:href="#A" x="48" y="296"/><use xlink:href="#A" x="48" y="304"/><use xlink:href="#A" x="48" y="320"/><use xlink:href="#A" x="56" y="32"/><use xlink:href="#A" x="56" y="48"/><use xlink:href="#A" x="56" y="56"/><use xlink:href="#A" x="56" y="64"/><use xlink:href="#A" x="56" y="80"/><use xlink:href="#A" x="56" y="104"/><use xlink:href="#A" x="56" y="112"/><use xlink:href="#A" x="56" y="120"/><use xlink:href="#A" x="56" y="128"/><use xlink:href="#A" x="56" y="144"/><use xlink:href="#A" x="56" y="152"/><use xlink:href="#A" x="56" y="160"/><use xlink:href="#A" x="56" y="184"/><use xlink:href="#A" x="56" y="192"/><use xlink:href="#A" x="56" y="200"/><use xlink:href="#A" x="56" y="232"/><use xlink:href="#A" x="56" y="248"/><use xlink:href="#A" x="56" y="256"/><use xlink:href="#A" x="56" y="272"/><use xlink:href="#A" x="56" y="288"/><use xlink:href="#A" x="56" y="296"/><use xlink:href="#A" x="56" y="304"/><use xlink:href="#A" x="56" y="320"/><use xlink:href="#A" x="64" y="32"/><use xlink:href="#A" x="64" y="48"/><use xlink:href="#A" x="64" y="56"/><use xlink:href="#A" x="64" y="64"/><use xlink:href="#A" x="64" y="80"/><use xlink:href="#A" x="64" y="96"/><use xlink:href="#A" x="64" y="104"/><use xlink:href="#A" x="64" y="120"/><use xlink:href="#A" x="64" y="152"/><use xlink:href="#A" x="64" y="168"/><use xlink:href="#A" x="64" y="184"/><use xlink:href="#A" x="64" y="200"/><use xlink:href="#A" x="64" y="248"/><use xlink:href="#A" x="64" y="272"/><use xlink:href="#A" x="64" y="288"/><use xlink:href="#A" x="64" y="296"/><use xlink:href="#A" x="64" y="304"/><use xlink:href="#A" x="64" y="320"/><use xlink:href="#A" x="72" y="32"/><use xlink:href="#A" x="72" y="80"/><use xlink:href="#A" x="72" y="96"/><use xlink:href="#A" x="72" y="104"/><use xlink:href="#A" x="72" y="136"/><use xlink:href="#A" x="72" y="144"/><use xlink:href="#A" x="72" y="152"/><use xlink:href="#A" x="72" y="168"/><use xlink:href="#A" x="72" y="176"/><use xlink:href="#A" x="72" y="192"/><use xlink:href="#A" x="72" y="200"/><use xlink:href="#A" x="72" y="216"/><use xlink:href="#A" x="72" y="232"/><use xlink:href="#A" x="72" y="256"/><use xlink:href="#A" x="72" y="272"/><use xlink:href="#A" x="72" y="320"/><use xlink:href="#A" x="80" y="32"/><use xlink:href="#A" x="80" y="40"/><use xlink:href="#A" x="80" y="48"/><use xlink:href="#A" x="80" y="56"/><use xlink:href="#A" x="80" y="64"/><use xlink:href="#A" x="80" y="72"/><use xlink:href="#A" x="80" y="80"/><use xlink:href="#A" x="80" y="96"/><use xlink:href="#A" x="80" y="112"/><use xlink:href="#A" x="80" y="128"/><use xlink:href="#A" x="80" y="144"/><use xlink:href="#A" x="80" y="160"/><use xlink:href="#A" x="80" y="176"/><use xlink:href="#A" x="80" y="192"/><use xlink:href="#A" x="80" y="208"/><use xlink:href="#A" x="80" y="224"/><use xlink:href="#A" x="80" y="240"/><use xlink:href="#A" x="80" y="256"/><use xlink:href="#A" x="80" y="272"/><use xlink:href="#A" x="80" y="280"/><use xlink:href="#A" x="80" y="288"/><use xlink:href="#A" x="80" y="296"/><use xlink:href="#A" x="80" y="304"/><use xlink:href="#A" x="80" y="312"/><use xlink:href="#A" x="80" y="320"/><use xlink:href="#A" x="88" y="96"/><use xlink:href="#A" x="88" y="104"/><use xlink:href="#A" x="88" y="128"/><use xlink:href="#A" x="88" y="136"/><use xlink:href="#A" x="88" y="144"/><use xlink:href="#A" x="88" y="160"/><use xlink:href="#A" x="88" y="184"/><use xlink:href="#A" x="88" y="192"/><use xlink:href="#A" x="88" y="200"/><use xlink:href="#A" x="88" y="216"/><use xlink:href="#A" x="88" y="224"/><use xlink:href="#A" x="88" y="232"/><use xlink:href="#A" x="96" y="40"/><use xlink:href="#A" x="96" y="72"/><use xlink:href="#A" x="96" y="80"/><use xlink:href="#A" x="96" y="88"/><use xlink:href="#A" x="96" y="104"/><use xlink:href="#A" x="96" y="112"/><use xlink:href="#A" x="96" y="144"/><use xlink:href="#A" x="96" y="192"/><use xlink:href="#A" x="96" y="200"/><use xlink:href="#A" x="96" y="216"/><use xlink:href="#A" x="96" y="240"/><use xlink:href="#A" x="96" y="248"/><use xlink:href="#A" x="96" y="264"/><use xlink:href="#A" x="96" y="272"/><use xlink:href="#A" x="96" y="280"/><use xlink:href="#A" x="96" y="288"/><use xlink:href="#A" x="104" y="48"/><use xlink:href="#A" x="104" y="56"/><use xlink:href="#A" x="104" y="64"/><use xlink:href="#A" x="104" y="72"/><use xlink:href="#A" x="104" y="112"/><use xlink:href="#A" x="104" y="120"/><use xlink:href="#A" x="104" y="136"/><use xlink:href="#A" x="104" y="152"/><use xlink:href="#A" x="104" y="168"/><use xlink:href="#A" x="104" y="184"/><use xlink:href="#A" x="104" y="224"/><use xlink:href="#A" x="104" y="248"/><use xlink:href="#A" x="104" y="256"/><use xlink:href="#A" x="104" y="288"/><use xlink:href="#A" x="104" y="296"/><use xlink:href="#A" x="104" y="320"/><use xlink:href="#A" x="112" y="40"/><use xlink:href="#A" x="112" y="64"/><use xlink:href="#A" x="112" y="80"/><use xlink:href="#A" x="112" y="88"/><use xlink:href="#A" x="112" y="120"/><use xlink:href="#A" x="112" y="128"/><use xlink:href="#A" x="112" y="144"/><use xlink:href="#A" x="112" y="152"/><use xlink:href="#A" x="112" y="184"/><use xlink:href="#A" x="112" y="208"/><use xlink:href="#A" x="112" y="224"/><use xlink:href="#A" x="112" y="232"/><use xlink:href="#A" x="112" y="240"/><use xlink:href="#A" x="112" y="248"/><use xlink:href="#A" x="112" y="272"/><use xlink:href="#A" x="112" y="280"/><use xlink:href="#A" x="112" y="288"/><use xlink:href="#A" x="112" y="312"/><use xlink:href="#A" x="112" y="320"/><use xlink:href="#A" x="120" y="40"/><use xlink:href="#A" x="120" y="56"/><use xlink:href="#A" x="120" y="64"/><use xlink:href="#A" x="120" y="120"/><use xlink:href="#A" x="120" y="152"/><use xlink:href="#A" x="120" y="176"/><use xlink:href="#A" x="120" y="192"/><use xlink:href="#A" x="120" y="208"/><use xlink:href="#A" x="120" y="232"/><use xlink:href="#A" x="120" y="240"/><use xlink:href="#A" x="120" y="248"/><use xlink:href="#A" x="120" y="264"/><use xlink:href="#A" x="120" y="272"/><use xlink:href="#A" x="120" y="280"/><use xlink:href="#A" x="120" y="288"/><use xlink:href="#A" x="120" y="312"/><use xlink:href="#A" x="128" y="32"/><use xlink:href="#A" x="128" y="64"/><use xlink:href="#A" x="128" y="72"/><use xlink:href="#A" x="128" y="80"/><use xlink:href="#A" x="128" y="112"/><use xlink:href="#A" x="128" y="136"/><use xlink:href="#A" x="128" y="144"/><use xlink:href="#A" x="128" y="152"/><use xlink:href="#A" x="128" y="160"/><use xlink:href="#A" x="128" y="168"/><use xlink:href="#A" x="128" y="176"/><use xlink:href="#A" x="128" y="192"/><use xlink:href="#A" x="128" y="200"/><use xlink:href="#A" x="128" y="208"/><use xlink:href="#A" x="128" y="248"/><use xlink:href="#A" x="128" y="280"/><use xlink:href="#A" x="128" y="288"/><use xlink:href="#A" x="128" y="312"/><use xlink:href="#A" x="136" y="32"/><use xlink:href="#A" x="136" y="40"/><use xlink:href="#A" x="136" y="56"/><use xlink:href="#A" x="136" y="88"/><use xlink:href="#A" x="136" y="104"/><use xlink:href="#A" x="136" y="112"/><use xlink:href="#A" x="136" y="136"/><use xlink:href="#A" x="136" y="144"/><use xlink:href="#A" x="136" y="160"/><use xlink:href="#A" x="136" y="168"/><use xlink:href="#A" x="136" y="184"/><use xlink:href="#A" x="136" y="192"/><use xlink:href="#A" x="136" y="200"/><use xlink:href="#A" x="136" y="208"/><use xlink:href="#A" x="136" y="216"/><use xlink:href="#A" x="136" y="256"/><use xlink:href="#A" x="136" y="264"/><use xlink:href="#A" x="136" y="272"/><use xlink:href="#A" x="136" y="280"/><use xlink:href="#A" x="136" y="304"/><use xlink:href="#A" x="144" y="40"/><use xlink:href="#A" x="144" y="56"/><use xlink:href="#A" x="144" y="72"/><use xlink:href="#A" x="144" y="80"/><use xlink:href="#A" x="144" y="88"/><use xlink:href="#A" x="144" y="96"/><use xlink:href="#A" x="144" y="104"/><use xlink:href="#A" x="144" y="112"/><use xlink:href="#A" x="144" y="128"/><use xlink:href="#A" x="144" y="136"/><use xlink:href="#A" x="144" y="144"/><use xlink:href="#A" x="144" y="152"/><use xlink:href="#A" x="144" y="192"/><use xlink:href="#A" x="144" y="208"/><use xlink:href="#A" x="144" y="216"/><use xlink:href="#A" x="144" y="248"/><use xlink:href="#A" x="144" y="264"/><use xlink:href="#A" x="144" y="280"/><use xlink:href="#A" x="144" y="304"/><use xlink:href="#A" x="144" y="312"/><use xlink:href="#A" x="144" y="320"/><use xlink:href="#A" x="152" y="32"/><use xlink:href="#A" x="152" y="48"/><use xlink:href="#A" x="152" y="56"/><use xlink:href="#A" x="152" y="64"/><use xlink:href="#A" x="152" y="72"/><use xlink:href="#A" x="152" y="88"/><use xlink:href="#A" x="152" y="104"/><use xlink:href="#A" x="152" y="112"/><use xlink:href="#A" x="152" y="120"/><use xlink:href="#A" x="152" y="144"/><use xlink:href="#A" x="152" y="160"/><use xlink:href="#A" x="152" y="184"/><use xlink:href="#A" x="152" y="192"/><use xlink:href="#A" x="152" y="200"/><use xlink:href="#A" x="152" y="208"/><use xlink:href="#A" x="152" y="224"/><use xlink:href="#A" x="152" y="240"/><use xlink:href="#A" x="152" y="248"/><use xlink:href="#A" x="152" y="256"/><use xlink:href="#A" x="152" y="272"/><use xlink:href="#A" x="152" y="296"/><use xlink:href="#A" x="152" y="312"/><use xlink:href="#A" x="152" y="320"/><use xlink:href="#A" x="160" y="32"/><use xlink:href="#A" x="160" y="80"/><use xlink:href="#A" x="160" y="88"/><use xlink:href="#A" x="160" y="96"/><use xlink:href="#A" x="160" y="120"/><use xlink:href="#A" x="160" y="136"/><use xlink:href="#A" x="160" y="144"/><use xlink:href="#A" x="160" y="184"/><use xlink:href="#A" x="160" y="192"/><use xlink:href="#A" x="160" y="208"/><use xlink:href="#A" x="160" y="216"/><use xlink:href="#A" x="160" y="224"/><use xlink:href="#A" x="160" y="248"/><use xlink:href="#A" x="160" y="256"/><use xlink:href="#A" x="160" y="280"/><use xlink:href="#A" x="160" y="288"/><use xlink:href="#A" x="160" y="312"/><use xlink:href="#A" x="168" y="32"/><use xlink:href="#A" x="168" y="40"/><use xlink:href="#A" x="168" y="48"/><use xlink:href="#A" x="168" y="112"/><use xlink:href="#A" x="168" y="136"/><use xlink:href="#A" x="168" y="144"/><use xlink:href="#A" x="168" y="160"/><use xlink:href="#A" x="168" y="176"/><use xlink:href="#A" x="168" y="200"/><use xlink:href="#A" x="168" y="224"/><use xlink:href="#A" x="168" y="264"/><use xlink:href="#A" x="168" y="304"/><use xlink:href="#A" x="168" y="320"/><use xlink:href="#A" x="176" y="40"/><use xlink:href="#A" x="176" y="64"/><use xlink:href="#A" x="176" y="72"/><use xlink:href="#A" x="176" y="80"/><use xlink:href="#A" x="176" y="88"/><use xlink:href="#A" x="176" y="96"/><use xlink:href="#A" x="176" y="136"/><use xlink:href="#A" x="176" y="152"/><use xlink:href="#A" x="176" y="176"/><use xlink:href="#A" x="176" y="184"/><use xlink:href="#A" x="176" y="200"/><use xlink:href="#A" x="176" y="216"/><use xlink:href="#A" x="176" y="224"/><use xlink:href="#A" x="176" y="232"/><use xlink:href="#A" x="176" y="240"/><use xlink:href="#A" x="176" y="248"/><use xlink:href="#A" x="176" y="256"/><use xlink:href="#A" x="176" y="264"/><use xlink:href="#A" x="176" y="288"/><use xlink:href="#A" x="176" y="296"/><use xlink:href="#A" x="176" y="304"/><use xlink:href="#A" x="184" y="56"/><use xlink:href="#A" x="184" y="72"/><use xlink:href="#A" x="184" y="88"/><use xlink:href="#A" x="184" y="104"/><use xlink:href="#A" x="184" y="120"/><use xlink:href="#A" x="184" y="144"/><use xlink:href="#A" x="184" y="160"/><use xlink:href="#A" x="184" y="184"/><use xlink:href="#A" x="184" y="192"/><use xlink:href="#A" x="184" y="208"/><use xlink:href="#A" x="184" y="224"/><use xlink:href="#A" x="184" y="240"/><use xlink:href="#A" x="184" y="248"/><use xlink:href="#A" x="184" y="272"/><use xlink:href="#A" x="184" y="280"/><use xlink:href="#A" x="184" y="312"/><use xlink:href="#A" x="192" y="48"/><use xlink:href="#A" x="192" y="56"/><use xlink:href="#A" x="192" y="64"/><use xlink:href="#A" x="192" y="80"/><use xlink:href="#A" x="192" y="96"/><use xlink:href="#A" x="192" y="112"/><use xlink:href="#A" x="192" y="136"/><use xlink:href="#A" x="192" y="160"/><use xlink:href="#A" x="192" y="232"/><use xlink:href="#A" x="192" y="248"/><use xlink:href="#A" x="192" y="256"/><use xlink:href="#A" x="192" y="280"/><use xlink:href="#A" x="192" y="288"/><use xlink:href="#A" x="192" y="320"/><use xlink:href="#A" x="200" y="32"/><use xlink:href="#A" x="200" y="40"/><use xlink:href="#A" x="200" y="48"/><use xlink:href="#A" x="200" y="64"/><use xlink:href="#A" x="200" y="72"/><use xlink:href="#A" x="200" y="88"/><use xlink:href="#A" x="200" y="96"/><use xlink:href="#A" x="200" y="104"/><use xlink:href="#A" x="200" y="120"/><use xlink:href="#A" x="200" y="128"/><use xlink:href="#A" x="200" y="136"/><use xlink:href="#A" x="200" y="144"/><use xlink:href="#A" x="200" y="168"/><use xlink:href="#A" x="200" y="184"/><use xlink:href="#A" x="200" y="192"/><use xlink:href="#A" x="200" y="200"/><use xlink:href="#A" x="200" y="208"/><use xlink:href="#A" x="200" y="224"/><use xlink:href="#A" x="200" y="264"/><use xlink:href="#A" x="200" y="272"/><use xlink:href="#A" x="200" y="296"/><use xlink:href="#A" x="200" y="304"/><use xlink:href="#A" x="208" y="32"/><use xlink:href="#A" x="208" y="40"/><use xlink:href="#A" x="208" y="48"/><use xlink:href="#A" x="208" y="72"/><use xlink:href="#A" x="208" y="80"/><use xlink:href="#A" x="208" y="96"/><use xlink:href="#A" x="208" y="104"/><use xlink:href="#A" x="208" y="152"/><use xlink:href="#A" x="208" y="160"/><use xlink:href="#A" x="208" y="168"/><use xlink:href="#A" x="208" y="176"/><use xlink:href="#A" x="208" y="184"/><use xlink:href="#A" x="208" y="192"/><use xlink:href="#A" x="208" y="216"/><use xlink:href="#A" x="208" y="240"/><use xlink:href="#A" x="208" y="280"/><use xlink:href="#A" x="208" y="288"/><use xlink:href="#A" x="216" y="32"/><use xlink:href="#A" x="216" y="48"/><use xlink:href="#A" x="216" y="88"/><use xlink:href="#A" x="216" y="128"/><use xlink:href="#A" x="216" y="136"/><use xlink:href="#A" x="216" y="160"/><use xlink:href="#A" x="216" y="168"/><use xlink:href="#A" x="216" y="184"/><use xlink:href="#A" x="216" y="192"/><use xlink:href="#A" x="216" y="240"/><use xlink:href="#A" x="216" y="248"/><use xlink:href="#A" x="216" y="256"/><use xlink:href="#A" x="216" y="272"/><use xlink:href="#A" x="216" y="288"/><use xlink:href="#A" x="216" y="304"/><use xlink:href="#A" x="216" y="312"/><use xlink:href="#A" x="224" y="32"/><use xlink:href="#A" x="224" y="48"/><use xlink:href="#A" x="224" y="72"/><use xlink:href="#A" x="224" y="80"/><use xlink:href="#A" x="224" y="112"/><use xlink:href="#A" x="224" y="144"/><use xlink:href="#A" x="224" y="152"/><use xlink:href="#A" x="224" y="160"/><use xlink:href="#A" x="224" y="176"/><use xlink:href="#A" x="224" y="192"/><use xlink:href="#A" x="224" y="200"/><use xlink:href="#A" x="224" y="224"/><use xlink:href="#A" x="224" y="232"/><use xlink:href="#A" x="224" y="240"/><use xlink:href="#A" x="224" y="256"/><use xlink:href="#A" x="224" y="272"/><use xlink:href="#A" x="224" y="280"/><use xlink:href="#A" x="224" y="288"/><use xlink:href="#A" x="224" y="312"/><use xlink:href="#A" x="232" y="32"/><use xlink:href="#A" x="232" y="40"/><use xlink:href="#A" x="232" y="56"/><use xlink:href="#A" x="232" y="96"/><use xlink:href="#A" x="232" y="112"/><use xlink:href="#A" x="232" y="144"/><use xlink:href="#A" x="232" y="168"/><use xlink:href="#A" x="232" y="208"/><use xlink:href="#A" x="232" y="224"/><use xlink:href="#A" x="232" y="232"/><use xlink:href="#A" x="232" y="320"/><use xlink:href="#A" x="240" y="32"/><use xlink:href="#A" x="240" y="40"/><use xlink:href="#A" x="240" y="56"/><use xlink:href="#A" x="240" y="72"/><use xlink:href="#A" x="240" y="80"/><use xlink:href="#A" x="240" y="88"/><use xlink:href="#A" x="240" y="112"/><use xlink:href="#A" x="240" y="120"/><use xlink:href="#A" x="240" y="144"/><use xlink:href="#A" x="240" y="152"/><use xlink:href="#A" x="240" y="168"/><use xlink:href="#A" x="240" y="192"/><use xlink:href="#A" x="240" y="200"/><use xlink:href="#A" x="240" y="232"/><use xlink:href="#A" x="240" y="240"/><use xlink:href="#A" x="240" y="248"/><use xlink:href="#A" x="240" y="256"/><use xlink:href="#A" x="240" y="264"/><use xlink:href="#A" x="240" y="272"/><use xlink:href="#A" x="240" y="280"/><use xlink:href="#A" x="240" y="288"/><use xlink:href="#A" x="240" y="296"/><use xlink:href="#A" x="240" y="304"/><use xlink:href="#A" x="240" y="312"/><use xlink:href="#A" x="248" y="32"/><use xlink:href="#A" x="248" y="56"/><use xlink:href="#A" x="248" y="64"/><use xlink:href="#A" x="248" y="96"/><use xlink:href="#A" x="248" y="104"/><use xlink:href="#A" x="248" y="112"/><use xlink:href="#A" x="248" y="128"/><use xlink:href="#A" x="248" y="136"/><use xlink:href="#A" x="248" y="144"/><use xlink:href="#A" x="248" y="168"/><use xlink:href="#A" x="248" y="176"/><use xlink:href="#A" x="248" y="192"/><use xlink:href="#A" x="248" y="200"/><use xlink:href="#A" x="248" y="208"/><use xlink:href="#A" x="248" y="224"/><use xlink:href="#A" x="248" y="232"/><use xlink:href="#A" x="248" y="240"/><use xlink:href="#A" x="248" y="248"/><use xlink:href="#A" x="248" y="256"/><use xlink:href="#A" x="248" y="264"/><use xlink:href="#A" x="248" y="272"/><use xlink:href="#A" x="248" y="296"/><use xlink:href="#A" x="248" y="312"/><use xlink:href="#A" x="256" y="32"/><use xlink:href="#A" x="256" y="40"/><use xlink:href="#A" x="256" y="48"/><use xlink:href="#A" x="256" y="56"/><use xlink:href="#A" x="256" y="72"/><use xlink:href="#A" x="256" y="80"/><use xlink:href="#A" x="256" y="104"/><use xlink:href="#A" x="256" y="128"/><use xlink:href="#A" x="256" y="144"/><use xlink:href="#A" x="256" y="152"/><use xlink:href="#A" x="256" y="168"/><use xlink:href="#A" x="256" y="176"/><use xlink:href="#A" x="256" y="208"/><use xlink:href="#A" x="256" y="216"/><use xlink:href="#A" x="256" y="232"/><use xlink:href="#A" x="256" y="256"/><use xlink:href="#A" x="256" y="264"/><use xlink:href="#A" x="256" y="272"/><use xlink:href="#A" x="256" y="280"/><use xlink:href="#A" x="256" y="288"/><use xlink:href="#A" x="256" y="296"/><use xlink:href="#A" x="264" y="112"/><use xlink:href="#A" x="264" y="120"/><use xlink:href="#A" x="264" y="128"/><use xlink:href="#A" x="264" y="136"/><use xlink:href="#A" x="264" y="144"/><use xlink:href="#A" x="264" y="160"/><use xlink:href="#A" x="264" y="168"/><use xlink:href="#A" x="264" y="184"/><use xlink:href="#A" x="264" y="192"/><use xlink:href="#A" x="264" y="200"/><use xlink:href="#A" x="264" y="216"/><use xlink:href="#A" x="264" y="240"/><use xlink:href="#A" x="264" y="256"/><use xlink:href="#A" x="264" y="288"/><use xlink:href="#A" x="272" y="32"/><use xlink:href="#A" x="272" y="40"/><use xlink:href="#A" x="272" y="48"/><use xlink:href="#A" x="272" y="56"/><use xlink:href="#A" x="272" y="64"/><use xlink:href="#A" x="272" y="72"/><use xlink:href="#A" x="272" y="80"/><use xlink:href="#A" x="272" y="96"/><use xlink:href="#A" x="272" y="104"/><use xlink:href="#A" x="272" y="128"/><use xlink:href="#A" x="272" y="160"/><use xlink:href="#A" x="272" y="192"/><use xlink:href="#A" x="272" y="200"/><use xlink:href="#A" x="272" y="208"/><use xlink:href="#A" x="272" y="224"/><use xlink:href="#A" x="272" y="248"/><use xlink:href="#A" x="272" y="256"/><use xlink:href="#A" x="272" y="272"/><use xlink:href="#A" x="272" y="288"/><use xlink:href="#A" x="272" y="296"/><use xlink:href="#A" x="272" y="304"/><use xlink:href="#A" x="272" y="320"/><use xlink:href="#A" x="280" y="32"/><use xlink:href="#A" x="280" y="80"/><use xlink:href="#A" x="280" y="96"/><use xlink:href="#A" x="280" y="112"/><use xlink:href="#A" x="280" y="120"/><use xlink:href="#A" x="280" y="160"/><use xlink:href="#A" x="280" y="216"/><use xlink:href="#A" x="280" y="224"/><use xlink:href="#A" x="280" y="248"/><use xlink:href="#A" x="280" y="256"/><use xlink:href="#A" x="280" y="288"/><use xlink:href="#A" x="280" y="296"/><use xlink:href="#A" x="280" y="304"/><use xlink:href="#A" x="280" y="312"/><use xlink:href="#A" x="288" y="32"/><use xlink:href="#A" x="288" y="48"/><use xlink:href="#A" x="288" y="56"/><use xlink:href="#A" x="288" y="64"/><use xlink:href="#A" x="288" y="80"/><use xlink:href="#A" x="288" y="104"/><use xlink:href="#A" x="288" y="120"/><use xlink:href="#A" x="288" y="136"/><use xlink:href="#A" x="288" y="144"/><use xlink:href="#A" x="288" y="152"/><use xlink:href="#A" x="288" y="168"/><use xlink:href="#A" x="288" y="184"/><use xlink:href="#A" x="288" y="200"/><use xlink:href="#A" x="288" y="232"/><use xlink:href="#A" x="288" y="248"/><use xlink:href="#A" x="288" y="256"/><use xlink:href="#A" x="288" y="264"/><use xlink:href="#A" x="288" y="272"/><use xlink:href="#A" x="288" y="280"/><use xlink:href="#A" x="288" y="288"/><use xlink:href="#A" x="288" y="320"/><use xlink:href="#A" x="296" y="32"/><use xlink:href="#A" x="296" y="48"/><use xlink:href="#A" x="296" y="56"/><use xlink:href="#A" x="296" y="64"/><use xlink:href="#A" x="296" y="80"/><use xlink:href="#A" x="296" y="104"/><use xlink:href="#A" x="296" y="112"/><use xlink:href="#A" x="296" y="144"/><use xlink:href="#A" x="296" y="160"/><use xlink:href="#A" x="296" y="168"/><use xlink:href="#A" x="296" y="200"/><use xlink:href="#A" x="296" y="208"/><use xlink:href="#A" x="296" y="224"/><use xlink:href="#A" x="296" y="232"/><use xlink:href="#A" x="296" y="264"/><use xlink:href="#A" x="296" y="272"/><use xlink:href="#A" x="296" y="288"/><use xlink:href="#A" x="304" y="32"/><use xlink:href="#A" x="304" y="48"/><use xlink:href="#A" x="304" y="56"/><use xlink:href="#A" x="304" y="64"/><use xlink:href="#A" x="304" y="80"/><use xlink:href="#A" x="304" y="112"/><use xlink:href="#A" x="304" y="120"/><use xlink:href="#A" x="304" y="136"/><use xlink:href="#A" x="304" y="144"/><use xlink:href="#A" x="304" y="152"/><use xlink:href="#A" x="304" y="160"/><use xlink:href="#A" x="304" y="176"/><use xlink:href="#A" x="304" y="184"/><use xlink:href="#A" x="304" y="192"/><use xlink:href="#A" x="304" y="200"/><use xlink:href="#A" x="304" y="208"/><use xlink:href="#A" x="304" y="216"/><use xlink:href="#A" x="304" y="232"/><use xlink:href="#A" x="304" y="248"/><use xlink:href="#A" x="304" y="272"/><use xlink:href="#A" x="304" y="280"/><use xlink:href="#A" x="304" y="288"/><use xlink:href="#A" x="304" y="312"/><use xlink:href="#A" x="304" y="320"/><use xlink:href="#A" x="312" y="32"/><use xlink:href="#A" x="312" y="80"/><use xlink:href="#A" x="312" y="96"/><use xlink:href="#A" x="312" y="128"/><use xlink:href="#A" x="312" y="160"/><use xlink:href="#A" x="312" y="184"/><use xlink:href="#A" x="312" y="192"/><use xlink:href="#A" x="312" y="200"/><use xlink:href="#A" x="312" y="256"/><use xlink:href="#A" x="312" y="264"/><use xlink:href="#A" x="312" y="280"/><use xlink:href="#A" x="312" y="288"/><use xlink:href="#A" x="312" y="304"/><use xlink:href="#A" x="312" y="312"/><use xlink:href="#A" x="312" y="320"/><use xlink:href="#A" x="320" y="32"/><use xlink:href="#A" x="320" y="40"/><use xlink:href="#A" x="320" y="48"/><use xlink:href="#A" x="320" y="56"/><use xlink:href="#A" x="320" y="64"/><use xlink:href="#A" x="320" y="72"/><use xlink:href="#A" x="320" y="80"/><use xlink:href="#A" x="320" y="104"/><use xlink:href="#A" x="320" y="128"/><use xlink:href="#A" x="320" y="152"/><use xlink:href="#A" x="320" y="160"/><use xlink:href="#A" x="320" y="232"/><use xlink:href="#A" x="320" y="248"/><use xlink:href="#A" x="320" y="280"/><use xlink:href="#A" x="320" y="320"/></g><g transform="matrix(.384826 0 0 .384826 -23.916884 150.12791)" fill-rule="evenodd"><g stroke="#ccc" stroke-width="10"><path fill="url(#B)" d="M484.316 140.296c0 24.616 13.42 47.106 34.16 61.997 1.83 1.215 2.745 3.04 2.745 5.47 0 .607-.305 1.52-.305 2.127-1.525 6.078-4.27 16.107-4.575 16.41-.305.91-.6 1.52-.6 2.43 0 1.824 1.525 3.343 3.355 3.343.6 0 1.22-.304 1.83-.608l21.656-12.46c1.524-.912 3.354-1.52 5.185-1.52.915 0 2.135 0 3.05.304 10.065 3.04 21.045 4.56 32.33 4.56 54.597 0 98.824-36.773 98.824-82.055S637.737 58.24 583.14 58.24s-98.824 36.773-98.824 82.055"/><path fill="url(#C)" d="M675.217 270.642c9.432 0 18.56-1.225 26.776-3.674.61-.306 1.522-.306 2.434-.306 1.522 0 3.043.613 4.26 1.225l17.952 10.41c.61.306.913.612 1.522.612a2.736 2.736 0 0 0 2.739-2.756c0-.612-.304-1.225-.304-2.143 0-.306-2.434-8.573-3.65-13.778-.305-.613-.305-1.225-.305-1.838 0-1.837.913-3.368 2.434-4.593 17.344-12.554 28.298-31.232 28.298-52.053 0-37.968-36.817-68.893-82.155-68.893s-82.155 30.62-82.155 68.893c0 37.968 36.817 68.894 82.155 68.894z"/></g><path fill="#187e28" d="M562.9 113.805c0 7.088-5.612 12.7-12.7 12.7s-12.7-5.612-12.7-12.7 5.612-12.7 12.7-12.7 12.7 5.612 12.7 12.7m65.883 0c0 7.088-5.612 12.7-12.7 12.7s-12.7-5.612-12.7-12.7 5.612-12.7 12.7-12.7 12.7 5.612 12.7 12.7"/><path fill="#858c8c" d="M692.283 180.482c0 6.174 4.94 11.113 11.113 11.113s11.113-4.94 11.113-11.113-4.94-11.113-11.113-11.113-11.113 4.94-11.113 11.113m-54.77 0c0 6.174 4.94 11.113 11.113 11.113s11.113-4.94 11.113-11.113-4.94-11.113-11.113-11.113-11.113 4.94-11.113 11.113"/></g></svg>